<svg xmlns="http://www.w3.org/2000/svg" xmlns:xlink="http://www.w3.org/1999/xlink" contentStyleType="text/css" data-diagram-type="CLASS" height="1092px" preserveAspectRatio="none" style="width:1635px;height:1092px;background:#FFFFFF;" version="1.1" viewBox="0 0 1635 1092" width="1635px" zoomAndPan="magnify"><title>&#50836;&#47532;GO&#51312;&#47532;GO (Refined Data Model)</title><defs/><g><g class="title" data-source-line="37"><text fill="#000000" font-family="'Segoe UI'" font-size="14" font-weight="bold" lengthAdjust="spacing" textLength="271.4456" x="674.7772" y="22.9951">&#50836;&#47532;GO&#51312;&#47532;GO (Refined Data Model)</text></g><!--cluster Firestore: User Domain--><g class="cluster" data-entity="Firestore. User Domain" data-source-line="43" data-uid="ent0002" id="cluster_Firestore. User Domain"><path d="M11,43.2969 L164.1074,43.2969 A7.5,7.5 0 0 1 169.1074,48.2969 L176.1074,63.2656 L492,63.2656 A5,5 0 0 1 497,68.2656 L497,879.2669 A5,5 0 0 1 492,884.2669 L11,884.2669 A5,5 0 0 1 6,879.2669 L6,48.2969 A5,5 0 0 1 11,43.2969" fill="#FAFAFA" style="stroke:#9E9E9E;stroke-width:1.5;"/><line style="stroke:#9E9E9E;stroke-width:1.5;" x1="6" x2="176.1074" y1="63.2656" y2="63.2656"/><text fill="#616161" font-family="'Segoe UI'" font-size="12" font-weight="bold" lengthAdjust="spacing" textLength="157.1074" x="10" y="56.4355">Firestore: User Domain</text></g><!--cluster Firestore: Recipe Domain--><g class="cluster" data-entity="Firestore. Recipe Domain" data-source-line="80" data-uid="ent0009" id="cluster_Firestore. Recipe Domain"><path d="M1093,347.9569 L1260.498,347.9569 A7.5,7.5 0 0 1 1265.498,352.9569 L1272.498,367.9256 L1365,367.9256 A5,5 0 0 1 1370,372.9256 L1370,915.2069 A5,5 0 0 1 1365,920.2069 L1093,920.2069 A5,5 0 0 1 1088,915.2069 L1088,352.9569 A5,5 0 0 1 1093,347.9569" fill="#FAFAFA" style="stroke:#9E9E9E;stroke-width:1.5;"/><line style="stroke:#9E9E9E;stroke-width:1.5;" x1="1088" x2="1272.498" y1="367.9256" y2="367.9256"/><text fill="#616161" font-family="'Segoe UI'" font-size="12" font-weight="bold" lengthAdjust="spacing" textLength="171.498" x="1092" y="361.0955">Firestore: Recipe Domain</text></g><!--cluster System & Logic (Background)--><g class="cluster" data-entity="System . Logic .Background." data-source-line="108" data-uid="ent0012" id="cluster_System . Logic .Background."><path d="M550,418.8169 L746.4258,418.8169 A7.5,7.5 0 0 1 751.4258,423.8169 L758.4258,438.7856 L1035,438.7856 A5,5 0 0 1 1040,443.7856 L1040,585.5969 A5,5 0 0 1 1035,590.5969 L550,590.5969 A5,5 0 0 1 545,585.5969 L545,423.8169 A5,5 0 0 1 550,418.8169" fill="#FAFAFA" style="stroke:#9E9E9E;stroke-width:1.5;"/><line style="stroke:#9E9E9E;stroke-width:1.5;" x1="545" x2="758.4258" y1="438.7856" y2="438.7856"/><text fill="#616161" font-family="'Segoe UI'" font-size="12" font-weight="bold" lengthAdjust="spacing" textLength="200.4258" x="549" y="431.9555">System &amp; Logic (Background)</text></g><!--cluster Search Engine--><g class="cluster" data-entity="Search Engine" data-source-line="124" data-uid="ent0017" id="cluster_Search Engine"><path d="M1399,730.4569 L1491.7559,730.4569 A7.5,7.5 0 0 1 1496.7559,735.4569 L1503.7559,750.4256 L1623,750.4256 A5,5 0 0 1 1628,755.4256 L1628,1080.0469 A5,5 0 0 1 1623,1085.0469 L1399,1085.0469 A5,5 0 0 1 1394,1080.0469 L1394,735.4569 A5,5 0 0 1 1399,730.4569" fill="#FAFAFA" style="stroke:#9E9E9E;stroke-width:1.5;"/><line style="stroke:#9E9E9E;stroke-width:1.5;" x1="1394" x2="1503.7559" y1="750.4256" y2="750.4256"/><text fill="#616161" font-family="'Segoe UI'" font-size="12" font-weight="bold" lengthAdjust="spacing" textLength="96.7559" x="1398" y="743.5955">Search Engine</text></g><!--class users_col--><g class="entity" data-entity="users_col" data-source-line="44" data-uid="ent0003" id="entity_users_col"><rect fill="#FFFFFF" height="187.6563" rx="5" ry="5" style="stroke:#455A64;stroke-width:0.5;" width="249.8008" x="228.1" y="75.2969"/><rect fill="#ECEFF1" height="37.9375" rx="5" ry="5" style="stroke:#ECEFF1;stroke-width:0.5;" width="249.8008" x="228.1" y="75.2969"/><rect fill="#ECEFF1" height="5" style="stroke:#ECEFF1;stroke-width:0.5;" width="249.8008" x="228.1" y="108.2344"/><rect fill="none" height="187.6563" rx="5" ry="5" style="stroke:#455A64;stroke-width:0.5;" width="249.8008" x="228.1" y="75.2969"/><text fill="#000000" font-family="Segoe UI" font-size="12" font-style="italic" lengthAdjust="spacing" textLength="74.0391" x="315.9809" y="91.4355">&#171;Collection&#187;</text><text fill="#000000" font-family="'Segoe UI'" font-size="12" lengthAdjust="spacing" textLength="32.4258" x="336.7875" y="105.4043">users</text><line style="stroke:#455A64;stroke-width:0.5;" x1="229.1" x2="476.9008" y1="113.2344" y2="113.2344"/><g data-visibility-modifier="IE_MANDATORY"><ellipse cx="239.1" cy="125.7188" fill="#000000" rx="3" ry="3" style="stroke:#000000;stroke-width:1;"/></g><text fill="#000000" font-family="'Segoe UI'" font-size="12" lengthAdjust="spacing" textLength="98.2793" x="247.1" y="128.373">uid : string &#171;PK&#187;</text><line style="stroke:#455A64;stroke-width:1;" x1="229.1" x2="476.9008" y1="135.2031" y2="135.2031"/><text fill="#000000" font-family="'Segoe UI'" font-size="12" lengthAdjust="spacing" textLength="79.2129" x="234.1" y="150.3418">email : string</text><text fill="#000000" font-family="'Segoe UI'" font-size="12" lengthAdjust="spacing" textLength="106.3242" x="234.1" y="164.3105">username : string</text><text fill="#000000" font-family="'Segoe UI'" font-size="12" lengthAdjust="spacing" textLength="142.4824" x="234.1" y="178.2793">usernameLower : string</text><text fill="#000000" font-family="'Segoe UI'" font-size="12" lengthAdjust="spacing" textLength="139.1602" x="234.1" y="192.248">emailVerified : boolean</text><text fill="#000000" font-family="'Segoe UI'" font-size="12" lengthAdjust="spacing" textLength="96.3809" x="234.1" y="206.2168">provider : string</text><text fill="#000000" font-family="'Segoe UI'" font-size="12" lengthAdjust="spacing" textLength="135.2871" x="234.1" y="220.1855">createdAt : timestamp</text><line style="stroke:#455A64;stroke-width:1;" x1="229.1" x2="476.9008" y1="227.0156" y2="227.0156"/><g data-visibility-modifier="IE_MANDATORY"><ellipse cx="239.1" cy="239.5" fill="#000000" rx="3" ry="3" style="stroke:#000000;stroke-width:1;"/></g><text fill="#000000" font-family="'Segoe UI'" font-size="12" lengthAdjust="spacing" textLength="217.3301" x="247.1" y="242.1543">myIngredients : Array&lt;PantryItem&gt;</text><g data-visibility-modifier="IE_MANDATORY"><ellipse cx="239.1" cy="253.4688" fill="#000000" rx="3" ry="3" style="stroke:#000000;stroke-width:1;"/></g><text fill="#000000" font-family="'Segoe UI'" font-size="12" lengthAdjust="spacing" textLength="224.8008" x="247.1" y="256.123">bookmarked_recipes : Array&lt;String&gt;</text></g><!--class usernames_col--><g class="entity" data-entity="usernames_col" data-source-line="58" data-uid="ent0004" id="entity_usernames_col"><rect fill="#FFFFFF" height="95.8438" rx="5" ry="5" style="stroke:#455A64;stroke-width:0.5;" width="201.0859" x="22.46" y="464.7769"/><rect fill="#ECEFF1" height="37.9375" rx="5" ry="5" style="stroke:#ECEFF1;stroke-width:0.5;" width="201.0859" x="22.46" y="464.7769"/><rect fill="#ECEFF1" height="5" style="stroke:#ECEFF1;stroke-width:0.5;" width="201.0859" x="22.46" y="497.7144"/><rect fill="none" height="95.8438" rx="5" ry="5" style="stroke:#455A64;stroke-width:0.5;" width="201.0859" x="22.46" y="464.7769"/><text fill="#000000" font-family="Segoe UI" font-size="12" font-style="italic" lengthAdjust="spacing" textLength="74.0391" x="85.9834" y="480.9155">&#171;Collection&#187;</text><text fill="#000000" font-family="'Segoe UI'" font-size="12" lengthAdjust="spacing" textLength="66.457" x="89.7745" y="494.8843">usernames</text><line style="stroke:#455A64;stroke-width:0.5;" x1="23.46" x2="222.5459" y1="502.7144" y2="502.7144"/><g data-visibility-modifier="IE_MANDATORY"><ellipse cx="33.46" cy="515.1988" fill="#000000" rx="3" ry="3" style="stroke:#000000;stroke-width:1;"/></g><text fill="#000000" font-family="'Segoe UI'" font-size="12" lengthAdjust="spacing" textLength="176.0859" x="41.46" y="517.853">usernameLower : string &#171;PK&#187;</text><line style="stroke:#455A64;stroke-width:1;" x1="23.46" x2="222.5459" y1="524.6831" y2="524.6831"/><text fill="#000000" font-family="'Segoe UI'" font-size="12" lengthAdjust="spacing" textLength="97.9453" x="28.46" y="539.8218">uid : string &#171;FK&#187;</text><text fill="#000000" font-family="'Segoe UI'" font-size="12" lengthAdjust="spacing" textLength="135.2871" x="28.46" y="553.7905">createdAt : timestamp</text></g><!--class pantry_obj--><g class="entity" data-entity="pantry_obj" data-source-line="65" data-uid="ent0005" id="entity_pantry_obj"><rect fill="#FFFFFF" height="151.7188" rx="5" ry="5" style="stroke:#455A64;stroke-width:0.5;" width="177.791" x="303.1" y="436.8469"/><rect fill="#ECEFF1" height="37.9375" rx="5" ry="5" style="stroke:#ECEFF1;stroke-width:0.5;" width="177.791" x="303.1" y="436.8469"/><rect fill="#ECEFF1" height="5" style="stroke:#ECEFF1;stroke-width:0.5;" width="177.791" x="303.1" y="469.7844"/><rect fill="none" height="151.7188" rx="5" ry="5" style="stroke:#455A64;stroke-width:0.5;" width="177.791" x="303.1" y="436.8469"/><text fill="#000000" font-family="Segoe UI" font-size="12" font-style="italic" lengthAdjust="spacing" textLength="53.7656" x="365.1127" y="452.9855">&#171;Object&#187;</text><text fill="#000000" font-family="'Segoe UI'" font-size="12" lengthAdjust="spacing" textLength="66.252" x="358.8695" y="466.9543">PantryItem</text><line style="stroke:#455A64;stroke-width:0.5;" x1="304.1" x2="479.891" y1="474.7844" y2="474.7844"/><text fill="#000000" font-family="'Segoe UI'" font-size="12" lengthAdjust="spacing" textLength="57.0703" x="309.1" y="489.923">id : string</text><text fill="#000000" font-family="'Segoe UI'" font-size="12" lengthAdjust="spacing" textLength="80.1504" x="309.1" y="503.8918">name : string</text><text fill="#000000" font-family="'Segoe UI'" font-size="12" lengthAdjust="spacing" textLength="99.1523" x="309.1" y="517.8605">category : string</text><text fill="#000000" font-family="'Segoe UI'" font-size="12" lengthAdjust="spacing" textLength="102.5977" x="309.1" y="531.8293">quantity : double</text><text fill="#000000" font-family="'Segoe UI'" font-size="12" lengthAdjust="spacing" textLength="69.3691" x="309.1" y="545.798">unit : string</text><text fill="#000000" font-family="'Segoe UI'" font-size="12" lengthAdjust="spacing" textLength="91.7051" x="309.1" y="559.7668">storage : string</text><text fill="#000000" font-family="'Segoe UI'" font-size="12" lengthAdjust="spacing" textLength="165.791" x="309.1" y="573.7355">expirationDate : timestamp</text><line style="stroke:#455A64;stroke-width:0.5;" x1="304.1" x2="479.891" y1="580.5656" y2="580.5656"/></g><g class="entity" data-entity="GMN6" data-source-line="76" data-uid="ent0007" id="entity_GMN6"><path d="M255.18,849.2969 L255.18,863.2656 A5,5 0 0 0 260.18,868.2656 L475.8187,868.2656 A5,5 0 0 0 480.8187,863.2656 L480.8187,854.2969 L470.8187,844.2969 L372.79,844.2969 L386.73,588.6669 L364.79,844.2969 L260.18,844.2969 A5,5 0 0 0 255.18,849.2969" fill="#FEFFDD" style="stroke:#181818;stroke-width:0.5;"/><path d="M470.8187,844.2969 L470.8187,851.7969 A2.5,2.5 0 0 0 473.3187,854.2969 L480.8187,854.2969 L470.8187,844.2969" fill="#FEFFDD" style="stroke:#181818;stroke-width:0.5;"/><text fill="#000000" font-family="'Segoe UI'" font-size="12" lengthAdjust="spacing" textLength="204.6387" x="261.18" y="860.4355">Inside 'users.myIngredients' array</text></g><!--class recipes_col--><g class="entity" data-entity="recipes_col" data-source-line="81" data-uid="ent0010" id="entity_recipes_col"><rect fill="#FFFFFF" height="265.5" rx="5" ry="5" style="stroke:#455A64;stroke-width:0.5;" width="250.1992" x="1103.9" y="379.9569"/><rect fill="#ECEFF1" height="37.9375" rx="5" ry="5" style="stroke:#ECEFF1;stroke-width:0.5;" width="250.1992" x="1103.9" y="379.9569"/><rect fill="#ECEFF1" height="5" style="stroke:#ECEFF1;stroke-width:0.5;" width="250.1992" x="1103.9" y="412.8944"/><rect fill="none" height="265.5" rx="5" ry="5" style="stroke:#455A64;stroke-width:0.5;" width="250.1992" x="1103.9" y="379.9569"/><text fill="#000000" font-family="Segoe UI" font-size="12" font-style="italic" lengthAdjust="spacing" textLength="74.0391" x="1191.9801" y="396.0955">&#171;Collection&#187;</text><text fill="#000000" font-family="'Segoe UI'" font-size="12" lengthAdjust="spacing" textLength="43.5" x="1207.2496" y="410.0643">recipes</text><line style="stroke:#455A64;stroke-width:0.5;" x1="1104.9" x2="1353.0992" y1="417.8944" y2="417.8944"/><g data-visibility-modifier="IE_MANDATORY"><ellipse cx="1114.9" cy="430.3787" fill="#000000" rx="3" ry="3" style="stroke:#000000;stroke-width:1;"/></g><text fill="#000000" font-family="'Segoe UI'" font-size="12" lengthAdjust="spacing" textLength="151.4238" x="1122.9" y="433.033">documentId : string &#171;PK&#187;</text><line style="stroke:#455A64;stroke-width:1;" x1="1104.9" x2="1353.0992" y1="439.8631" y2="439.8631"/><text fill="#000000" font-family="'Segoe UI'" font-size="12" lengthAdjust="spacing" textLength="179.5313" x="1109.9" y="455.0018">RCP_SNO : string &#171;Unique ID&#187;</text><text fill="#000000" font-family="'Segoe UI'" font-size="12" lengthAdjust="spacing" textLength="69.5801" x="1109.9" y="468.9705">title : string</text><text fill="#000000" font-family="'Segoe UI'" font-size="12" lengthAdjust="spacing" textLength="100.5469" x="1109.9" y="482.9393">imageUrl : string</text><text fill="#000000" font-family="'Segoe UI'" font-size="12" lengthAdjust="spacing" textLength="98.1973" x="1109.9" y="496.908">difficulty : string</text><text fill="#000000" font-family="'Segoe UI'" font-size="12" lengthAdjust="spacing" textLength="126.0176" x="1109.9" y="510.8768">cooking_time : string</text><text fill="#000000" font-family="'Segoe UI'" font-size="12" lengthAdjust="spacing" textLength="130.6582" x="1109.9" y="524.8455">category_kind : string</text><text fill="#000000" font-family="'Segoe UI'" font-size="12" lengthAdjust="spacing" textLength="96.5977" x="1109.9" y="538.8143">servings : string</text><line style="stroke:#455A64;stroke-width:1;" x1="1104.9" x2="1353.0992" y1="545.6444" y2="545.6444"/><text fill="#000000" font-family="'Segoe UI'" font-size="12" lengthAdjust="spacing" textLength="125.9941" x="1109.9" y="560.783">view_count : number</text><text fill="#000000" font-family="'Segoe UI'" font-size="12" lengthAdjust="spacing" textLength="170.6016" x="1109.9" y="574.7518">recommend_count : number</text><text fill="#000000" font-family="'Segoe UI'" font-size="12" lengthAdjust="spacing" textLength="131.1152" x="1109.9" y="588.7205">scrap_count : number</text><line style="stroke:#455A64;stroke-width:1;" x1="1104.9" x2="1353.0992" y1="595.5506" y2="595.5506"/><text fill="#000000" font-family="'Segoe UI'" font-size="12" lengthAdjust="spacing" textLength="167.8945" x="1122.9" y="610.6893">ingredients : Array&lt;String&gt;</text><text fill="#000000" font-family="'Segoe UI'" font-size="12" lengthAdjust="spacing" textLength="141.9902" x="1122.9" y="624.658">ingredients_raw : string</text><g data-visibility-modifier="IE_MANDATORY"><ellipse cx="1114.9" cy="635.9725" fill="#000000" rx="3" ry="3" style="stroke:#000000;stroke-width:1;"/></g><text fill="#000000" font-family="'Segoe UI'" font-size="12" lengthAdjust="spacing" textLength="225.1992" x="1122.9" y="638.6268">cooking_steps : Array&lt;CookingStep&gt;</text></g><!--class step_obj--><g class="entity" data-entity="step_obj" data-source-line="101" data-uid="ent0011" id="entity_step_obj"><rect fill="#FFFFFF" height="95.8438" rx="5" ry="5" style="stroke:#455A64;stroke-width:0.5;" width="124.8398" x="1161.58" y="808.3569"/><rect fill="#ECEFF1" height="37.9375" rx="5" ry="5" style="stroke:#ECEFF1;stroke-width:0.5;" width="124.8398" x="1161.58" y="808.3569"/><rect fill="#ECEFF1" height="5" style="stroke:#ECEFF1;stroke-width:0.5;" width="124.8398" x="1161.58" y="841.2944"/><rect fill="none" height="95.8438" rx="5" ry="5" style="stroke:#455A64;stroke-width:0.5;" width="124.8398" x="1161.58" y="808.3569"/><text fill="#000000" font-family="Segoe UI" font-size="12" font-style="italic" lengthAdjust="spacing" textLength="53.7656" x="1197.1171" y="824.4955">&#171;Object&#187;</text><text fill="#000000" font-family="'Segoe UI'" font-size="12" lengthAdjust="spacing" textLength="75.8906" x="1186.0546" y="838.4643">CookingStep</text><line style="stroke:#455A64;stroke-width:0.5;" x1="1162.58" x2="1285.4198" y1="846.2944" y2="846.2944"/><text fill="#000000" font-family="'Segoe UI'" font-size="12" lengthAdjust="spacing" textLength="84.4629" x="1167.58" y="861.433">step : number</text><text fill="#000000" font-family="'Segoe UI'" font-size="12" lengthAdjust="spacing" textLength="112.8398" x="1167.58" y="875.4018">description : string</text><text fill="#000000" font-family="'Segoe UI'" font-size="12" lengthAdjust="spacing" textLength="100.5469" x="1167.58" y="889.3705">imageUrl : string</text><line style="stroke:#455A64;stroke-width:0.5;" x1="1162.58" x2="1285.4198" y1="896.2006" y2="896.2006"/></g><!--class expiring_col--><g class="entity" data-entity="expiring_col" data-source-line="109" data-uid="ent0013" id="entity_expiring_col"><rect fill="#FFFFFF" height="123.7813" rx="5" ry="5" style="stroke:#455A64;stroke-width:0.5;" width="177.791" x="561.1" y="450.8169"/><rect fill="#ECEFF1" height="37.9375" rx="5" ry="5" style="stroke:#ECEFF1;stroke-width:0.5;" width="177.791" x="561.1" y="450.8169"/><rect fill="#ECEFF1" height="5" style="stroke:#ECEFF1;stroke-width:0.5;" width="177.791" x="561.1" y="483.7544"/><rect fill="none" height="123.7813" rx="5" ry="5" style="stroke:#455A64;stroke-width:0.5;" width="177.791" x="561.1" y="450.8169"/><text fill="#000000" font-family="Segoe UI" font-size="12" font-style="italic" lengthAdjust="spacing" textLength="74.0391" x="612.976" y="466.9555">&#171;Collection&#187;</text><text fill="#000000" font-family="'Segoe UI'" font-size="12" lengthAdjust="spacing" textLength="116.9004" x="591.5453" y="480.9243">expiringIngredients</text><line style="stroke:#455A64;stroke-width:0.5;" x1="562.1" x2="737.891" y1="488.7544" y2="488.7544"/><g data-visibility-modifier="IE_MANDATORY"><ellipse cx="572.1" cy="501.2388" fill="#000000" rx="3" ry="3" style="stroke:#000000;stroke-width:1;"/></g><text fill="#000000" font-family="'Segoe UI'" font-size="12" lengthAdjust="spacing" textLength="151.4238" x="580.1" y="503.893">documentId : string &#171;PK&#187;</text><line style="stroke:#455A64;stroke-width:1;" x1="562.1" x2="737.891" y1="510.7231" y2="510.7231"/><text fill="#000000" font-family="'Segoe UI'" font-size="12" lengthAdjust="spacing" textLength="160.5996" x="567.1" y="525.8618">uid : string &#171;FK: users.uid&#187;</text><text fill="#000000" font-family="'Segoe UI'" font-size="12" lengthAdjust="spacing" textLength="143.0391" x="567.1" y="539.8305">ingredientName : string</text><text fill="#000000" font-family="'Segoe UI'" font-size="12" lengthAdjust="spacing" textLength="165.791" x="567.1" y="553.7993">expirationDate : timestamp</text><text fill="#000000" font-family="'Segoe UI'" font-size="12" lengthAdjust="spacing" textLength="151.8398" x="567.1" y="567.768">notificationStatus : string</text></g><g class="entity" data-entity="GMN14" data-source-line="119" data-uid="ent0015" id="entity_GMN14"><path d="M818.44,498.7369 L818.44,526.6744 A5,5 0 0 0 823.44,531.6744 L1018.565,531.6744 A5,5 0 0 0 1023.565,526.6744 L1023.565,503.7369 L1013.565,493.7369 L823.44,493.7369 A5,5 0 0 0 818.44,498.7369" fill="#FEFFDD" style="stroke:#181818;stroke-width:0.5;"/><path d="M1013.565,493.7369 L1013.565,501.2369 A2.5,2.5 0 0 0 1016.065,503.7369 L1023.565,503.7369 L1013.565,493.7369" fill="#FEFFDD" style="stroke:#181818;stroke-width:1;"/><text fill="#000000" font-family="'Segoe UI'" font-size="12" lengthAdjust="spacing" textLength="184.125" x="824.44" y="509.8755">Synced for Notification Worker</text><text fill="#000000" font-family="'Segoe UI'" font-size="12" lengthAdjust="spacing" textLength="167.1211" x="824.44" y="523.8443">(Statuses: PENDING | SENT)</text></g><!--class algolia_idx--><g class="entity" data-entity="algolia_idx" data-source-line="125" data-uid="ent0018" id="entity_algolia_idx"><rect fill="#E3F2FD" height="187.6563" rx="5" ry="5" style="stroke:#1565C0;stroke-width:0.5;" width="182.6016" x="1414.7" y="762.4569"/><rect fill="#BBDEFB" height="37.9375" rx="5" ry="5" style="stroke:#BBDEFB;stroke-width:0.5;" width="182.6016" x="1414.7" y="762.4569"/><rect fill="#BBDEFB" height="5" style="stroke:#BBDEFB;stroke-width:0.5;" width="182.6016" x="1414.7" y="795.3944"/><rect fill="none" height="187.6563" rx="5" ry="5" style="stroke:#1565C0;stroke-width:0.5;" width="182.6016" x="1414.7" y="762.4569"/><text fill="#000000" font-family="Segoe UI" font-size="12" font-style="italic" lengthAdjust="spacing" textLength="55.207" x="1478.3973" y="778.5955">&#171;Algolia&#187;</text><text fill="#000000" font-family="'Segoe UI'" font-size="12" lengthAdjust="spacing" textLength="82.541" x="1464.7303" y="792.5643">recipes_index</text><line style="stroke:#1565C0;stroke-width:0.5;" x1="1415.7" x2="1596.3016" y1="800.3944" y2="800.3944"/><g data-visibility-modifier="IE_MANDATORY"><ellipse cx="1425.7" cy="812.8788" fill="#000000" rx="3" ry="3" style="stroke:#000000;stroke-width:1;"/></g><text fill="#000000" font-family="'Segoe UI'" font-size="12" lengthAdjust="spacing" textLength="129.4805" x="1433.7" y="815.533">objectID : string &#171;PK&#187;</text><line style="stroke:#1565C0;stroke-width:1;" x1="1415.7" x2="1596.3016" y1="822.3631" y2="822.3631"/><text fill="#000000" font-family="'Segoe UI'" font-size="12" lengthAdjust="spacing" textLength="69.5801" x="1420.7" y="837.5018">title : string</text><text fill="#000000" font-family="'Segoe UI'" font-size="12" lengthAdjust="spacing" textLength="167.8945" x="1420.7" y="851.4705">ingredients : Array&lt;String&gt;</text><text fill="#000000" font-family="'Segoe UI'" font-size="12" lengthAdjust="spacing" textLength="100.5469" x="1420.7" y="865.4393">imageUrl : string</text><text fill="#000000" font-family="'Segoe UI'" font-size="12" lengthAdjust="spacing" textLength="126.0176" x="1420.7" y="879.408">cooking_time : string</text><text fill="#000000" font-family="'Segoe UI'" font-size="12" lengthAdjust="spacing" textLength="98.1973" x="1420.7" y="893.3768">difficulty : string</text><line style="stroke:#1565C0;stroke-width:1;" x1="1415.7" x2="1596.3016" y1="900.2069" y2="900.2069"/><text fill="#000000" font-family="'Segoe UI'" font-size="12" lengthAdjust="spacing" textLength="170.6016" x="1420.7" y="915.3455">recommend_count : number</text><text fill="#000000" font-family="'Segoe UI'" font-size="12" lengthAdjust="spacing" textLength="125.9941" x="1420.7" y="929.3143">view_count : number</text><text fill="#000000" font-family="'Segoe UI'" font-size="12" lengthAdjust="spacing" textLength="131.1152" x="1420.7" y="943.283">scrap_count : number</text></g><g class="entity" data-entity="GMN19" data-source-line="140" data-uid="ent0020" id="entity_GMN19"><path d="M1410.37,1036.1069 L1410.37,1064.0444 A5,5 0 0 0 1415.37,1069.0444 L1606.6278,1069.0444 A5,5 0 0 0 1611.6278,1064.0444 L1611.6278,1041.1069 L1601.6278,1031.1069 L1514.52,1031.1069 L1508.43,950.3669 L1506.52,1031.1069 L1415.37,1031.1069 A5,5 0 0 0 1410.37,1036.1069" fill="#FEFFDD" style="stroke:#181818;stroke-width:0.5;"/><path d="M1601.6278,1031.1069 L1601.6278,1038.6069 A2.5,2.5 0 0 0 1604.1278,1041.1069 L1611.6278,1041.1069 L1601.6278,1031.1069" fill="#FEFFDD" style="stroke:#181818;stroke-width:0.5;"/><text fill="#000000" font-family="'Segoe UI'" font-size="12" lengthAdjust="spacing" textLength="180.2578" x="1416.37" y="1047.2455">Optimized for Full-text Search</text><text fill="#000000" font-family="'Segoe UI'" font-size="12" lengthAdjust="spacing" textLength="111.7617" x="1416.37" y="1061.2143">&amp; Custom Ranking</text></g><!--link expiring_col to GMN14--><g class="link" data-entity-1="expiring_col" data-entity-2="GMN14" data-source-line="119" data-uid="lnk16" id="link_expiring_col_GMN14"><path d="M739.32,512.7069 C739.98,512.7069 740.33,512.7069 740.33,512.7069 C740.33,512.7069 793.29,512.7069 818.11,512.7069" fill="none" id="expiring_col-GMN14" style="stroke:#455A64;stroke-width:1;stroke-dasharray:7,7;"/></g><!--link users_col to usernames_col--><g class="link" data-entity-1="users_col" data-entity-2="usernames_col" data-source-line="150" data-uid="lnk22" id="link_users_col_usernames_col"><path codeLine="150" d="M262.9143,269.0124 C242.5843,291.3424 232,302.9569 232,302.9569 C232,302.9569 183.5929,395.6554 151.4329,457.2454" fill="none" id="users_col-usernames_col" style="stroke:#455A64;stroke-width:1;"/><line style="stroke:#455A64;stroke-width:1;" x1="262.6494" x2="268.5649" y1="263.3618" y2="268.7475"/><line style="stroke:#455A64;stroke-width:1;" x1="260.6297" x2="266.5453" y1="265.5801" y2="270.9659"/><line style="stroke:#455A64;stroke-width:1;" x1="262.9143" x2="268.3" y1="269.0124" y2="263.0969"/><line style="stroke:#455A64;stroke-width:1;" x1="153.1272" x2="146.0357" y1="462.6426" y2="458.9397"/><line style="stroke:#455A64;stroke-width:1;" x1="154.5158" x2="147.4243" y1="459.9833" y2="456.2804"/><line style="stroke:#455A64;stroke-width:1;" x1="151.4329" x2="147.73" y1="457.2454" y2="464.3369"/><text fill="#000000" font-family="'Segoe UI'" font-size="12" lengthAdjust="spacing" textLength="115.5469" x="233" y="322.0955">1:1 (Unique Check)</text></g><!--link users_col to pantry_obj--><g class="link" data-entity-1="users_col" data-entity-2="pantry_obj" data-source-line="151" data-uid="lnk23" id="link_users_col_pantry_obj"><path codeLine="151" d="M364.9703,274.9295 C371.1803,329.3595 376.6628,377.3485 382.4928,428.4285" fill="none" id="users_col-pantry_obj" style="stroke:#455A64;stroke-width:1;"/><polygon fill="#455A64" points="363.61,263.0069,360.3159,269.4216,364.9703,274.9295,368.2644,268.5148,363.61,263.0069" style="stroke:#455A64;stroke-width:1;"/><line style="stroke:#455A64;stroke-width:1;" x1="382.4928" x2="391.3484" y1="428.4285" y2="436.3769"/><line style="stroke:#455A64;stroke-width:1;" x1="382.4928" x2="375.4516" y1="428.4285" y2="436.3769"/><line style="stroke:#455A64;stroke-width:1;" x1="382.4928" x2="383.4" y1="428.4285" y2="436.3769"/><text fill="#000000" font-family="'Segoe UI'" font-size="12" lengthAdjust="spacing" textLength="128.4785" x="373" y="322.0955">contains (Embedded)</text></g><!--link recipes_col to step_obj--><g class="link" data-entity-1="recipes_col" data-entity-2="step_obj" data-source-line="154" data-uid="lnk24" id="link_recipes_col_step_obj"><path codeLine="154" d="M1226.8934,657.7656 C1226.0534,714.8356 1225.4284,757.9978 1224.8084,799.8978" fill="none" id="recipes_col-step_obj" style="stroke:#455A64;stroke-width:1;"/><polygon fill="#455A64" points="1227.07,645.7669,1222.9821,651.7074,1226.8934,657.7656,1230.9813,651.8251,1227.07,645.7669" style="stroke:#455A64;stroke-width:1;"/><line style="stroke:#455A64;stroke-width:1;" x1="1224.8084" x2="1232.6891" y1="799.8978" y2="807.8969"/><line style="stroke:#455A64;stroke-width:1;" x1="1224.8084" x2="1216.6909" y1="799.8978" y2="807.8969"/><line style="stroke:#455A64;stroke-width:1;" x1="1224.8084" x2="1224.69" y1="799.8978" y2="807.8969"/><text fill="#000000" font-family="'Segoe UI'" font-size="12" lengthAdjust="spacing" textLength="128.4785" x="1228" y="704.5955">contains (Embedded)</text></g><!--link users_col to recipes_col--><g class="link" data-entity-1="users_col" data-entity-2="recipes_col" data-source-line="157" data-uid="lnk25" id="link_users_col_recipes_col"><path codeLine="157" d="M495.8612,204.8364 C697.0112,253.7064 1052,339.9569 1052,339.9569 C1052,339.9569 1061.6924,349.3615 1090.7524,377.5615" fill="none" id="users_col-recipes_col" style="stroke:#455A64;stroke-width:1;stroke-dasharray:7,7;"/><line style="stroke:#455A64;stroke-width:1;" x1="486.1439" x2="476.9535" y1="202.4756" y2="206.4173"/><line style="stroke:#455A64;stroke-width:1;" x1="486.1439" x2="479.7865" y1="202.4756" y2="194.7565"/><line style="stroke:#455A64;stroke-width:1;" x1="486.1439" x2="478.37" y1="202.4756" y2="200.5869"/><ellipse cx="491.9743" cy="203.8921" fill="none" rx="4" ry="4" style="stroke:#455A64;stroke-width:1;"/><line style="stroke:#455A64;stroke-width:1;" x1="1097.9288" x2="1107.8484" y1="384.5256" y2="385.791"/><line style="stroke:#455A64;stroke-width:1;" x1="1097.9288" x2="1099.4916" y1="384.5256" y2="394.4028"/><line style="stroke:#455A64;stroke-width:1;" x1="1097.9288" x2="1103.67" y1="384.5256" y2="390.0969"/><ellipse cx="1093.623" cy="380.3472" fill="none" rx="4" ry="4" style="stroke:#455A64;stroke-width:1;"/><text fill="#000000" font-family="'Segoe UI'" font-size="12" lengthAdjust="spacing" textLength="122.3965" x="1016" y="322.0955">bookmarks (Ref IDs)</text></g><!--link users_col to expiring_col--><g class="link" data-entity-1="users_col" data-entity-2="expiring_col" data-source-line="160" data-uid="lnk26" id="link_users_col_expiring_col"><path codeLine="160" d="M471.29,263.0969 C499.7,285.4269 522,302.9569 522,302.9569 C522,302.9569 571.5533,383.7721 609.3233,445.3621" fill="none" id="users_col-to-expiring_col" style="stroke:#455A64;stroke-width:1;stroke-dasharray:7,7;"/><polygon fill="#455A64" points="612.46,450.4769,611.1649,440.7135,609.8461,446.2145,604.3451,444.8958,612.46,450.4769" style="stroke:#455A64;stroke-width:1;"/><text fill="#000000" font-family="'Segoe UI'" font-size="12" lengthAdjust="spacing" textLength="125.0918" x="539" y="315.0955">Syncs expiring items</text><text fill="#000000" font-family="'Segoe UI'" font-size="12" lengthAdjust="spacing" textLength="105.4043" x="548.8438" y="329.0643">(Cloud Functions)</text></g><!--link recipes_col to algolia_idx--><g class="link" data-entity-1="recipes_col" data-entity-2="algolia_idx" data-source-line="161" data-uid="lnk27" id="link_recipes_col_algolia_idx"><path codeLine="161" d="M1342.67,645.6169 C1362.55,668.6769 1377,685.4569 1377,685.4569 C1377,685.4569 1401.7106,717.9891 1431.8306,757.6391" fill="none" id="recipes_col-to-algolia_idx" style="stroke:#455A64;stroke-width:1;stroke-dasharray:7,7;"/><polygon fill="#455A64" points="1435.46,762.4169,1433.201,752.8306,1432.4355,758.4354,1426.8307,757.6698,1435.46,762.4169" style="stroke:#455A64;stroke-width:1;"/><text fill="#000000" font-family="'Segoe UI'" font-size="12" lengthAdjust="spacing" textLength="109.957" x="1399" y="697.5955">Syncs search data</text><text fill="#000000" font-family="'Segoe UI'" font-size="12" lengthAdjust="spacing" textLength="105.4043" x="1401.2764" y="711.5643">(Cloud Functions)</text></g><!--SRC=[hLTjQnj74FwkNp6e4Ci6YJY9GojKWQsNL3IrZLMtNmfYVRUIDhwxLVPEjjNOu605qYGb7nAJaZQf2-bB80NLSK9IqluWwVmVEhjtbbQMpY_GEv3kTcPdPkVbcRa9I2QJC9q2_zwBmvrj_za7w7KUGc_lhl_imDzj-p_kWDz-uU_jIiPOdPaK32OCYyRSLUOqY20sk7LYydNcrA1AB5Ud2DvqJ8CBXmgOlgWHBEPGhzMWqE1MIxv0RAB_d4QLUwWV3kzyB-swzwxtwmSuVFpXSFS0Uc-tUuz-wltyJtV_0NJ__jT_teO45rwTzruVzEw_WEx-U__z7tAxltVRV_PWCeQYkvrsT_ybzDgF3f_VxRxhGABRsUuzlEEt_uB3tJV-_LUJcdKEDwbB6_2nRh8WpcguY08F7tRGhj0t6fT9gwHfUKNkUFF4fX0lqngdi5oAZsSgisyfJ5-I8lsTx_oTstZe1xtVxshS3MAiaXg5Mp70QmxVQiglEMvn0HyLP-KTqBWmgGZNFod8MwrBHU7grMbvnxPYcWB38guR8NwzpZogABD2yFLGofMPcTchLqPrQkkVKOBh8zOMSeLYKUcVW5chnYr6C4vj_-dBGGgUpRHC9joVpQBOoyLBnVnnWuPOfcUkpkGkHjisn3mtboyKvwIP7lCi2lxJnxtVNbrRy7_fg7z8BD4gfge9UU8H-08JnbA9zkcPBsI-b88yjmbpqBcKk93mVxZjF_aJkczUzTws9yydBdQK9_4Y4zJrkC12MdQnyW8TyT2DrC4ZjI3UH98R1rIhdYe6jo2JGLTOrF0OTz0DmGPvJK6JcP06rnEopZEPnS-psJuLaU7eaQ8ggy_ONvOg75aFaPJhV1rD7I4hULzHmQgCIWDMEBSeSVhqXk1h24fZTXheKe-QinwIF6QZHuZT66Vo5DYjabCJr6Je6nVPCTL9AxD874-qIXwrinel6h1g4x5ApOgW1clGmOQoCY1Wnimvxcnvoe73rTkfJX_hd1FSVonAHPqjsY5RwbVz10KN7vnT6TnGhnM-SWE5BgpSG6E7BDMqzjV6Xzj04sfSj4OfDviaS5OQJDvSiUZWK0xpHlbbXijq7qsPZGOJH7eJQvEUT5Y78ts5UnwtWLUrKuQoIeuh6zw4Af3KK9PC094n3uDiAb4IBiOLuPBAauWo39D8kJbyFYqhJ6uqRTnVEbD5BkKMA-Nv1PrrsM4tcnHAUMr7W7CZpcGsdcPPZ2bfarMhpC0sDYQM1XO9lbUavwDpe88yOn87dRs6x-ueHJlL6gFhwAUc8pF3QTehLFHfw4PkeuFCA0RN4AGHHTIKi36ee1VvCPwA8EkZHa_rlU5wj34Gb0jMoxWu11bX1MfabHjoStG1IkheKN2ACGHho1GwQsItXfAut4B1Dbo0wxp634WCMkRayJnMLOTIj1fHTX-j_xz9FO9pwQ2BfP2G7HUS-R5eT0fKX1Y1lSTGJ6MFU4ttkCE6uKImMjsJQA8VF9HMRZa6Th4g3aBpcbZuccC_EGfR8j12tJGi5kRpfVbhi0dbmloNaz5WKwP467KeE3MSII8GfeB5HZTKJ4Wmw5IOkG7wsAF7WwiaA-NF4eqex3XB-KJYoyaOSXBwQ9QT2WKduKWaJ4It4CspePW5B3yRX_mWxCMcPIKzkk514BAGwGBacguKiOGV6KT7qIDzpi7oSWgRZgMIowqp19r4zs2x-xeD_fDETxzptibo8fWZIuudnn4hDXWODpUJoStDOmDD6kBJwMb8X6qcLwV6wcHSspMLJDxIPmhSOE0d2dP7jBI0RZPDYWWZ5OUziwzQRv5AJ1yNJn2YhCyaiw4qpP8jdahnMqED5-KSpNYk6lEnJxg175c_Hr3Ox- -0SlCueAw57mEJclXKAZiCW6c9gOunW4N0polR_SP9v2pUD34_70MEKg5kb1IaLsrVZXjKlecAnmdv3m00]--></g></svg>