<svg xmlns="http://www.w3.org/2000/svg" xmlns:xlink="http://www.w3.org/1999/xlink" contentStyleType="text/css" data-diagram-type="DESCRIPTION" height="1552px" preserveAspectRatio="none" style="width:1382px;height:1552px;background:#FFFFFF;" version="1.1" viewBox="0 0 1382 1552" width="1382px" zoomAndPan="magnify"><title>&#50836;&#47532;GO&#51312;&#47532;GO (Food Recipe App) Use Case Diagram</title><defs/><g><g class="title" data-source-line="12"><text fill="#000000" font-family="sans-serif" font-size="14" font-weight="bold" lengthAdjust="spacing" textLength="396.509" x="485.8067" y="22.9951">&#50836;&#47532;GO&#51312;&#47532;GO (Food Recipe App) Use Case Diagram</text></g><!--cluster ??GO??GO App--><g class="cluster" data-entity="..GO..GO App" data-source-line="28" data-uid="ent0007" id="cluster_..GO..GO App"><rect fill="none" height="942" rx="2.5" ry="2.5" style="stroke:#181818;stroke-width:1;" width="807.55" x="319.09" y="406.5969"/><text fill="#000000" font-family="sans-serif" font-size="14" font-weight="bold" lengthAdjust="spacing" textLength="134.0569" x="655.8366" y="421.592">&#50836;&#47532;GO&#51312;&#47532;GO App</text></g><!--cluster ?? ?? (Auth)--><g class="cluster" data-entity=".. .. .Auth." data-source-line="31" data-uid="ent0008" id="cluster_.. .. .Auth."><rect fill="none" height="337" rx="2.5" ry="2.5" style="stroke:#181818;stroke-width:1;" width="459.52" x="349.52" y="746.5969"/><text fill="#000000" font-family="sans-serif" font-size="14" font-weight="bold" lengthAdjust="spacing" textLength="111.5256" x="523.5172" y="761.592">&#54924;&#50896; &#44288;&#47532; (Auth)</text></g><!--cluster ??? ?? (Pantry)--><g class="cluster" data-entity="... .. .Pantry." data-source-line="42" data-uid="ent0016" id="cluster_... .. .Pantry."><rect fill="none" height="217" rx="2.5" ry="2.5" style="stroke:#181818;stroke-width:1;" width="424.39" x="644.11" y="1107.5969"/><text fill="#000000" font-family="sans-serif" font-size="14" font-weight="bold" lengthAdjust="spacing" textLength="139.3421" x="786.6339" y="1122.592">&#45257;&#51109;&#44256; &#44288;&#47532; (Pantry)</text></g><!--cluster ??? ?? (Recipe)--><g class="cluster" data-entity="... .. .Recipe." data-source-line="51" data-uid="ent0022" id="cluster_... .. .Recipe."><rect fill="none" height="231" rx="2.5" ry="2.5" style="stroke:#181818;stroke-width:1;" width="472.38" x="343.09" y="491.5969"/><text fill="#000000" font-family="sans-serif" font-size="14" font-weight="bold" lengthAdjust="spacing" textLength="139.8343" x="509.3629" y="506.592">&#47112;&#49884;&#54588; &#53456;&#49353; (Recipe)</text></g><!--cluster ??? (My Page)--><g class="cluster" data-entity="... .My Page." data-source-line="61" data-uid="ent0029" id="cluster_... .My Page."><rect fill="none" height="225" rx="2.5" ry="2.5" style="stroke:#181818;stroke-width:1;" width="185.43" x="917.21" y="535.5969"/><text fill="#000000" font-family="sans-serif" font-size="14" font-weight="bold" lengthAdjust="spacing" textLength="123.467" x="948.1915" y="550.592">&#44060;&#51064;&#54868; (My Page)</text></g><!--entity UC_CheckExpiration--><g class="entity" data-entity="UC_CheckExpiration" data-source-line="68" data-uid="ent0033" id="entity_UC_CheckExpiration"><ellipse cx="426.2183" cy="1118.5925" fill="#FEFECE" rx="72.2283" ry="16.8457" style="stroke:#A80036;stroke-width:0.5;"/><text fill="#000000" font-family="sans-serif" font-size="14" lengthAdjust="spacing" textLength="111.9399" x="370.2484" y="1123.241">&#50976;&#53685;&#44592;&#54620; &#51076;&#48149; &#54869;&#51064;</text></g><!--entity UC_SyncIndex--><g class="entity" data-entity="UC_SyncIndex" data-source-line="69" data-uid="ent0034" id="entity_UC_SyncIndex"><ellipse cx="426.2183" cy="458.5925" fill="#FEFECE" rx="72.2283" ry="16.8457" style="stroke:#A80036;stroke-width:0.5;"/><text fill="#000000" font-family="sans-serif" font-size="14" lengthAdjust="spacing" textLength="111.9399" x="370.2484" y="463.241">&#44160;&#49353; &#51064;&#45937;&#49828; &#46041;&#44592;&#54868;</text></g><!--entity UC_Login--><g class="entity" data-entity="UC_Login" data-source-line="32" data-uid="ent0009" id="entity_UC_Login"><ellipse cx="426.2225" cy="860.6005" fill="#FEFECE" rx="30.3225" ry="14.5236" style="stroke:#A80036;stroke-width:0.5;"/><text fill="#000000" font-family="sans-serif" font-size="14" lengthAdjust="spacing" textLength="38.6398" x="406.9026" y="865.2489">&#47196;&#44536;&#51064;</text></g><!--entity UC_EmailLogin--><g class="entity" data-entity="UC_EmailLogin" data-source-line="33" data-uid="ent0010" id="entity_UC_EmailLogin"><ellipse cx="732.325" cy="821.5979" fill="#FEFECE" rx="60.705" ry="14.541" style="stroke:#A80036;stroke-width:0.5;"/><text fill="#000000" font-family="sans-serif" font-size="14" lengthAdjust="spacing" textLength="81.7299" x="691.4601" y="826.2463">&#51060;&#47700;&#51068; &#47196;&#44536;&#51064;</text></g><!--entity UC_GoogleLogin--><g class="entity" data-entity="UC_GoogleLogin" data-source-line="34" data-uid="ent0011" id="entity_UC_GoogleLogin"><ellipse cx="732.3342" cy="885.6005" fill="#FEFECE" rx="51.6842" ry="14.5236" style="stroke:#A80036;stroke-width:0.5;"/><text fill="#000000" font-family="sans-serif" font-size="14" lengthAdjust="spacing" textLength="68.8499" x="697.9093" y="890.2489">&#44396;&#44544; &#47196;&#44536;&#51064;</text></g><!--entity UC_Join--><g class="entity" data-entity="UC_Join" data-source-line="35" data-uid="ent0012" id="entity_UC_Join"><ellipse cx="426.22" cy="796.6005" fill="#FEFECE" rx="39.43" ry="14.5236" style="stroke:#A80036;stroke-width:0.5;"/><text fill="#000000" font-family="sans-serif" font-size="14" lengthAdjust="spacing" textLength="51.5198" x="400.4601" y="801.2489">&#54924;&#50896;&#44032;&#51077;</text></g><!--entity UC_FindPW--><g class="entity" data-entity="UC_FindPW" data-source-line="36" data-uid="ent0013" id="entity_UC_FindPW"><ellipse cx="426.225" cy="924.5979" fill="#FEFECE" rx="60.705" ry="14.541" style="stroke:#A80036;stroke-width:0.5;"/><text fill="#000000" font-family="sans-serif" font-size="14" lengthAdjust="spacing" textLength="81.7299" x="385.3601" y="929.2463">&#48708;&#48128;&#48264;&#54840; &#52286;&#44592;</text></g><!--entity UC_Logout--><g class="entity" data-entity="UC_Logout" data-source-line="37" data-uid="ent0014" id="entity_UC_Logout"><ellipse cx="426.22" cy="988.6005" fill="#FEFECE" rx="39.43" ry="14.5236" style="stroke:#A80036;stroke-width:0.5;"/><text fill="#000000" font-family="sans-serif" font-size="14" lengthAdjust="spacing" textLength="51.5198" x="400.4601" y="993.2489">&#47196;&#44536;&#50500;&#50883;</text></g><!--entity UC_DeleteAccount--><g class="entity" data-entity="UC_DeleteAccount" data-source-line="38" data-uid="ent0015" id="entity_UC_DeleteAccount"><ellipse cx="426.2167" cy="1052.6005" fill="#FEFECE" rx="42.5767" ry="14.5236" style="stroke:#A80036;stroke-width:0.5;"/><text fill="#000000" font-family="sans-serif" font-size="14" lengthAdjust="spacing" textLength="55.97" x="398.2318" y="1057.2489">&#44228;&#51221; &#53448;&#53748;</text></g><!--entity UC_ViewPantry--><g class="entity" data-entity="UC_ViewPantry" data-source-line="43" data-uid="ent0017" id="entity_UC_ViewPantry"><ellipse cx="732.3316" cy="1259.5972" fill="#FEFECE" rx="62.3016" ry="14.8603" style="stroke:#A80036;stroke-width:0.5;"/><text fill="#000000" font-family="sans-serif" font-size="14" lengthAdjust="spacing" textLength="86.1801" x="689.2415" y="1264.2456">&#51116;&#47308; &#47785;&#47197; &#51312;&#54924;</text></g><!--entity UC_AddPantry--><g class="entity" data-entity="UC_AddPantry" data-source-line="44" data-uid="ent0018" id="entity_UC_AddPantry"><ellipse cx="1009.9267" cy="1157.6005" fill="#FEFECE" rx="42.5767" ry="14.5236" style="stroke:#A80036;stroke-width:0.5;"/><text fill="#000000" font-family="sans-serif" font-size="14" lengthAdjust="spacing" textLength="55.97" x="981.9418" y="1162.2489">&#51116;&#47308; &#52628;&#44032;</text></g><!--entity UC_EditPantry--><g class="entity" data-entity="UC_EditPantry" data-source-line="45" data-uid="ent0019" id="entity_UC_EditPantry"><ellipse cx="1009.9267" cy="1285.6005" fill="#FEFECE" rx="42.5767" ry="14.5236" style="stroke:#A80036;stroke-width:0.5;"/><text fill="#000000" font-family="sans-serif" font-size="14" lengthAdjust="spacing" textLength="55.97" x="981.9418" y="1290.2489">&#51116;&#47308; &#49688;&#51221;</text></g><!--entity UC_DeletePantry--><g class="entity" data-entity="UC_DeletePantry" data-source-line="46" data-uid="ent0020" id="entity_UC_DeletePantry"><ellipse cx="1009.9267" cy="1221.6005" fill="#FEFECE" rx="42.5767" ry="14.5236" style="stroke:#A80036;stroke-width:0.5;"/><text fill="#000000" font-family="sans-serif" font-size="14" lengthAdjust="spacing" textLength="55.97" x="981.9418" y="1226.2489">&#51116;&#47308; &#49325;&#51228;</text></g><!--entity UC_ReceiveNoti--><g class="entity" data-entity="UC_ReceiveNoti" data-source-line="47" data-uid="ent0021" id="entity_UC_ReceiveNoti"><ellipse cx="732.3283" cy="1174.5925" fill="#FEFECE" rx="72.2283" ry="16.8457" style="stroke:#A80036;stroke-width:0.5;"/><text fill="#000000" font-family="sans-serif" font-size="14" lengthAdjust="spacing" textLength="111.9399" x="676.3584" y="1179.241">&#50976;&#53685;&#44592;&#54620; &#50508;&#47548; &#48155;&#44592;</text></g><!--entity UC_ViewRecommend--><g class="entity" data-entity="UC_ViewRecommend" data-source-line="52" data-uid="ent0023" id="entity_UC_ViewRecommend"><ellipse cx="426.2238" cy="614.5936" fill="#FEFECE" rx="67.1338" ry="15.8268" style="stroke:#A80036;stroke-width:0.5;"/><text fill="#000000" font-family="sans-serif" font-size="14" lengthAdjust="spacing" textLength="99.06" x="376.6938" y="619.2421">&#52628;&#52380; &#47112;&#49884;&#54588; &#51312;&#54924;</text></g><!--entity UC_ViewPopular--><g class="entity" data-entity="UC_ViewPopular" data-source-line="53" data-uid="ent0024" id="entity_UC_ViewPopular"><ellipse cx="426.2238" cy="685.5936" fill="#FEFECE" rx="67.1338" ry="15.8268" style="stroke:#A80036;stroke-width:0.5;"/><text fill="#000000" font-family="sans-serif" font-size="14" lengthAdjust="spacing" textLength="99.06" x="376.6938" y="690.2421">&#51064;&#44592; &#47112;&#49884;&#54588; &#51312;&#54924;</text></g><!--entity UC_Search--><g class="entity" data-entity="UC_Search" data-source-line="54" data-uid="ent0025" id="entity_UC_Search"><ellipse cx="426.2242" cy="541.6005" fill="#FEFECE" rx="51.6842" ry="14.5236" style="stroke:#A80036;stroke-width:0.5;"/><text fill="#000000" font-family="sans-serif" font-size="14" lengthAdjust="spacing" textLength="68.8499" x="391.7993" y="546.2489">&#47112;&#49884;&#54588; &#44160;&#49353;</text></g><!--entity UC_TextSearch--><g class="entity" data-entity="UC_TextSearch" data-source-line="55" data-uid="ent0026" id="entity_UC_TextSearch"><ellipse cx="732.3342" cy="541.6005" fill="#FEFECE" rx="51.6842" ry="14.5236" style="stroke:#A80036;stroke-width:0.5;"/><text fill="#000000" font-family="sans-serif" font-size="14" lengthAdjust="spacing" textLength="68.8499" x="697.9093" y="546.2489">&#53581;&#49828;&#53944; &#44160;&#49353;</text></g><!--entity UC_PantrySearch--><g class="entity" data-entity="UC_PantrySearch" data-source-line="56" data-uid="ent0027" id="entity_UC_PantrySearch"><ellipse cx="732.3338" cy="606.5936" fill="#FEFECE" rx="67.1338" ry="15.8268" style="stroke:#A80036;stroke-width:0.5;"/><text fill="#000000" font-family="sans-serif" font-size="14" lengthAdjust="spacing" textLength="99.06" x="682.8038" y="611.2421">&#48372;&#50976; &#51116;&#47308;&#47196; &#44160;&#49353;</text></g><!--entity UC_ViewDetail--><g class="entity" data-entity="UC_ViewDetail" data-source-line="57" data-uid="ent0028" id="entity_UC_ViewDetail"><ellipse cx="732.3338" cy="673.5936" fill="#FEFECE" rx="67.1338" ry="15.8268" style="stroke:#A80036;stroke-width:0.5;"/><text fill="#000000" font-family="sans-serif" font-size="14" lengthAdjust="spacing" textLength="99.06" x="682.8038" y="678.2421">&#47112;&#49884;&#54588; &#49345;&#49464; &#48372;&#44592;</text></g><!--entity UC_Bookmark--><g class="entity" data-entity="UC_Bookmark" data-source-line="62" data-uid="ent0030" id="entity_UC_Bookmark"><ellipse cx="1009.9262" cy="656.5941" fill="#FEFECE" rx="72.3362" ry="16.8672" style="stroke:#A80036;stroke-width:0.5;"/><text fill="#000000" font-family="sans-serif" font-size="14" lengthAdjust="spacing" textLength="112.2065" x="953.8229" y="661.2425">&#51600;&#44200;&#52286;&#44592; &#52628;&#44032;/&#54644;&#51228;</text></g><!--entity UC_ViewFavorites--><g class="entity" data-entity="UC_ViewFavorites" data-source-line="63" data-uid="ent0031" id="entity_UC_ViewFavorites"><ellipse cx="1009.9283" cy="587.5925" fill="#FEFECE" rx="72.2283" ry="16.8457" style="stroke:#A80036;stroke-width:0.5;"/><text fill="#000000" font-family="sans-serif" font-size="14" lengthAdjust="spacing" textLength="111.9399" x="953.9584" y="592.241">&#51600;&#44200;&#52286;&#44592; &#47785;&#47197; &#51312;&#54924;</text></g><!--entity UC_EditProfile--><g class="entity" data-entity="UC_EditProfile" data-source-line="64" data-uid="ent0032" id="entity_UC_EditProfile"><ellipse cx="1009.9343" cy="726.5997" fill="#FEFECE" rx="76.7143" ry="17.7429" style="stroke:#A80036;stroke-width:0.5;"/><text fill="#000000" font-family="sans-serif" font-size="14" lengthAdjust="spacing" textLength="122.8638" x="948.5024" y="731.2482">&#54532;&#47196;&#54596; &#49688;&#51221; (&#45769;&#45348;&#51076;)</text></g><!--entity User--><g class="entity" data-entity="User" data-source-line="17" data-uid="ent0002" id="entity_User"><ellipse cx="82.55" cy="859.2969" fill="#F1F1F1" rx="16" ry="16" style="stroke:#181818;stroke-width:0.5;"/><path d="M82.55,879.2969 C86.55,879.2969 89.55,879.2969 93.55,875.2969 C101.55,875.2969 109.55,883.2969 109.55,891.2969 L109.55,895.2969 C109.55,899.2969 105.55,903.2969 101.55,903.2969 L63.55,903.2969 C59.55,903.2969 55.55,899.2969 55.55,895.2969 L55.55,891.2969 C55.55,883.2969 63.55,875.2969 71.55,875.2969 C75.55,879.2969 78.55,879.2969 82.55,879.2969" fill="#F1F1F1" style="stroke:#181818;stroke-width:0.5;"/><text fill="#000000" font-family="sans-serif" font-size="14" lengthAdjust="spacing" textLength="38.6398" x="61.133" y="916.792">&#49324;&#50857;&#51088;</text><text fill="#000000" font-family="sans-serif" font-size="14" lengthAdjust="spacing" textLength="42.834" x="61.133" y="933.0889">(User)</text></g><!--entity Admin--><g class="entity" data-entity="Admin" data-source-line="18" data-uid="ent0003" id="entity_Admin"><ellipse cx="82.543" cy="59.2969" fill="#F1F1F1" rx="16" ry="16" style="stroke:#181818;stroke-width:0.5;"/><path d="M82.543,79.2969 C86.543,79.2969 89.543,79.2969 93.543,75.2969 C101.543,75.2969 109.543,83.2969 109.543,91.2969 L109.543,95.2969 C109.543,99.2969 105.543,103.2969 101.543,103.2969 L63.543,103.2969 C59.543,103.2969 55.543,99.2969 55.543,95.2969 L55.543,91.2969 C55.543,83.2969 63.543,75.2969 71.543,75.2969 C75.543,79.2969 78.543,79.2969 82.543,79.2969" fill="#F1F1F1" style="stroke:#181818;stroke-width:0.5;"/><text fill="#000000" font-family="sans-serif" font-size="14" lengthAdjust="spacing" textLength="81.9965" x="11.21" y="116.792">&#44288;&#47532;&#51088;/&#49884;&#49828;&#53596;</text><text fill="#000000" font-family="sans-serif" font-size="14" lengthAdjust="spacing" textLength="142.666" x="11.21" y="133.0889">(Firebase Functions)</text></g><!--entity Firebase--><g class="entity" data-entity="Firebase" data-source-line="21" data-uid="ent0004" id="entity_Firebase"><rect fill="#F1F1F1" height="62.5938" rx="2.5" ry="2.5" style="stroke:#181818;stroke-width:0.5;" width="150.4824" x="1225.64" y="453.2969"/><rect fill="#F1F1F1" height="10" style="stroke:#181818;stroke-width:0.5;" width="15" x="1356.1224" y="458.2969"/><rect fill="#F1F1F1" height="2" style="stroke:#181818;stroke-width:0.5;" width="4" x="1354.1224" y="460.2969"/><rect fill="#F1F1F1" height="2" style="stroke:#181818;stroke-width:0.5;" width="4" x="1354.1224" y="464.2969"/><text fill="#000000" font-family="sans-serif" font-size="14" lengthAdjust="spacing" textLength="59.6846" x="1240.64" y="486.292">Firebase</text><text fill="#000000" font-family="sans-serif" font-size="14" lengthAdjust="spacing" textLength="110.4824" x="1240.64" y="502.5889">(Auth/Firestore)</text></g><!--entity Algolia--><g class="entity" data-entity="Algolia" data-source-line="22" data-uid="ent0005" id="entity_Algolia"><rect fill="#F1F1F1" height="62.5938" rx="2.5" ry="2.5" style="stroke:#181818;stroke-width:0.5;" width="151.7607" x="656.45" y="200.2969"/><rect fill="#F1F1F1" height="10" style="stroke:#181818;stroke-width:0.5;" width="15" x="788.2107" y="205.2969"/><rect fill="#F1F1F1" height="2" style="stroke:#181818;stroke-width:0.5;" width="4" x="786.2107" y="207.2969"/><rect fill="#F1F1F1" height="2" style="stroke:#181818;stroke-width:0.5;" width="4" x="786.2107" y="211.2969"/><text fill="#000000" font-family="sans-serif" font-size="14" lengthAdjust="spacing" textLength="47.2773" x="671.45" y="233.292">Algolia</text><text fill="#000000" font-family="sans-serif" font-size="14" lengthAdjust="spacing" textLength="111.7607" x="671.45" y="249.5889">(Search Engine)</text></g><!--entity AndroidSystem--><g class="entity" data-entity="AndroidSystem" data-source-line="23" data-uid="ent0006" id="entity_AndroidSystem"><rect fill="#F1F1F1" height="62.5938" rx="2.5" ry="2.5" style="stroke:#181818;stroke-width:0.5;" width="151.0908" x="7" y="1391.2969"/><rect fill="#F1F1F1" height="10" style="stroke:#181818;stroke-width:0.5;" width="15" x="138.0908" y="1396.2969"/><rect fill="#F1F1F1" height="2" style="stroke:#181818;stroke-width:0.5;" width="4" x="136.0908" y="1398.2969"/><rect fill="#F1F1F1" height="2" style="stroke:#181818;stroke-width:0.5;" width="4" x="136.0908" y="1402.2969"/><text fill="#000000" font-family="sans-serif" font-size="14" lengthAdjust="spacing" textLength="111.0908" x="22" y="1424.292">Android System</text><text fill="#000000" font-family="sans-serif" font-size="14" lengthAdjust="spacing" textLength="108.5615" x="22" y="1440.5889">(WorkManager)</text></g><!--link User to UC_Login--><g class="link" data-entity-1="User" data-entity-2="UC_Login" data-source-line="77" data-uid="lnk35" id="link_User_UC_Login"><path d="M110.36,887.3169 C173.44,881.9669 324.8715,869.1142 390.1615,863.5742" fill="none" id="User-to-UC_Login" style="stroke:#A80036;stroke-width:1;"/><polygon fill="#A80036" points="396.14,863.0669,386.834,859.8421,391.1579,863.4896,387.5104,867.8135,396.14,863.0669" style="stroke:#A80036;stroke-width:1;"/></g><!--link User to UC_Join--><g class="link" data-entity-1="User" data-entity-2="UC_Join" data-source-line="78" data-uid="lnk36" id="link_User_UC_Join"><path d="M110.29,878.4969 C131.21,870.0869 161.18,858.6369 188.09,850.5969 C258.89,829.4369 337.8073,813.0963 384.3973,804.1663" fill="none" id="User-to-UC_Join" style="stroke:#A80036;stroke-width:1;"/><polygon fill="#A80036" points="390.29,803.0369,380.6979,800.8026,385.3794,803.9781,382.2039,808.6596,390.29,803.0369" style="stroke:#A80036;stroke-width:1;"/></g><!--link User to UC_FindPW--><g class="link" data-entity-1="User" data-entity-2="UC_FindPW" data-source-line="79" data-uid="lnk37" id="link_User_UC_FindPW"><path d="M110.36,892.3469 C166.05,898.0469 289.2812,910.6759 363.7212,918.2959" fill="none" id="User-to-UC_FindPW" style="stroke:#A80036;stroke-width:1;"/><polygon fill="#A80036" points="369.69,918.9069,361.1441,914.0112,364.716,918.3977,360.3295,921.9696,369.69,918.9069" style="stroke:#A80036;stroke-width:1;"/></g><!--link User to UC_ViewPantry--><g class="link" data-entity-1="User" data-entity-2="UC_ViewPantry" data-source-line="80" data-uid="lnk38" id="link_User_UC_ViewPantry"><path d="M88.68,936.8469 C97.86,998.7769 122.72,1106.9769 188.09,1170.5969 C323.53,1302.4069 567.9408,1284.5391 674.8508,1269.1991" fill="none" id="User-to-UC_ViewPantry" style="stroke:#A80036;stroke-width:1;"/><polygon fill="#A80036" points="680.79,1268.3469,671.3131,1265.6657,675.8407,1269.057,672.4494,1273.5846,680.79,1268.3469" style="stroke:#A80036;stroke-width:1;"/></g><!--link User to UC_ViewRecommend--><g class="link" data-entity-1="User" data-entity-2="UC_ViewRecommend" data-source-line="81" data-uid="lnk39" id="link_User_UC_ViewRecommend"><path d="M110.53,849.2269 C130.4,820.8169 158.93,782.6669 188.09,752.5969 C237.14,702.0169 249.33,686.4969 311.09,652.5969 C332.05,641.0869 351.3417,633.9627 372.6217,627.7327" fill="none" id="User-to-UC_ViewRecommend" style="stroke:#A80036;stroke-width:1;"/><polygon fill="#A80036" points="378.38,626.0469,368.6187,624.7367,373.5814,627.4517,370.8664,632.4145,378.38,626.0469" style="stroke:#A80036;stroke-width:1;"/></g><!--link User to UC_ViewPopular--><g class="link" data-entity-1="User" data-entity-2="UC_ViewPopular" data-source-line="82" data-uid="lnk40" id="link_User_UC_ViewPopular"><path d="M110.19,867.5569 C130.82,850.9669 160.44,828.1669 188.09,810.5969 C259.18,765.4169 342.8643,724.1985 388.9743,702.4285" fill="none" id="User-to-UC_ViewPopular" style="stroke:#A80036;stroke-width:1;"/><polygon fill="#A80036" points="394.4,699.8669,384.5537,700.0922,389.8786,702.0016,387.9692,707.3265,394.4,699.8669" style="stroke:#A80036;stroke-width:1;"/></g><!--link User to UC_Search--><g class="link" data-entity-1="User" data-entity-2="UC_Search" data-source-line="83" data-uid="lnk41" id="link_User_UC_Search"><path d="M100.15,842.4069 C117.48,797.4669 147.76,729.4769 188.09,679.5969 C232.04,625.2469 249.92,615.4069 311.09,581.5969 C335.07,568.3369 358.5056,559.906 381.3656,553.156" fill="none" id="User-to-UC_Search" style="stroke:#A80036;stroke-width:1;"/><polygon fill="#A80036" points="387.12,551.4569,377.3557,550.1693,382.3247,552.8728,379.6212,557.8418,387.12,551.4569" style="stroke:#A80036;stroke-width:1;"/></g><!--link User to UC_ViewFavorites--><g class="link" data-entity-1="User" data-entity-2="UC_ViewFavorites" data-source-line="84" data-uid="lnk42" id="link_User_UC_ViewFavorites"><path d="M95.12,842.7069 C131.28,708.1169 256.34,321.7969 528.45,190.5969 C576.65,167.3569 811.65,171.4869 823.47,182.5969 C842.93,200.8969 825.14,399.2969 838.21,422.5969 C854.92,452.3869 875.69,443.9069 901.21,466.5969 C939.05,500.2269 973.2282,541.6649 992.3882,566.1049" fill="none" id="User-to-UC_ViewFavorites" style="stroke:#A80036;stroke-width:1;"/><polygon fill="#A80036" points="996.09,570.8269,993.6852,561.2761,993.0052,566.8919,987.3893,566.2119,996.09,570.8269" style="stroke:#A80036;stroke-width:1;"/></g><!--link User to UC_EditProfile--><g class="link" data-entity-1="User" data-entity-2="UC_EditProfile" data-source-line="85" data-uid="lnk43" id="link_User_UC_EditProfile"><path d="M83.88,936.8569 C87.01,1012.7169 104.25,1161.8169 188.09,1247.5969 C410.91,1475.5769 671.29,1545.4169 901.21,1324.5969 C909.15,1316.9669 907.65,1137.4969 909.21,1126.5969 C930.74,976.4069 983.1621,806.3585 1001.1721,750.3885" fill="none" id="User-to-UC_EditProfile" style="stroke:#A80036;stroke-width:1;"/><polygon fill="#A80036" points="1003.01,744.6769,996.4455,752.019,1001.4784,749.4365,1004.0609,754.4695,1003.01,744.6769" style="stroke:#A80036;stroke-width:1;"/></g><!--link User to UC_Logout--><g class="link" data-entity-1="User" data-entity-2="UC_Logout" data-source-line="86" data-uid="lnk44" id="link_User_UC_Logout"><path d="M110.48,897.6469 C153.04,910.3469 238.46,935.7269 311.09,956.5969 C339.18,964.6669 365.4395,972.0188 388.4095,978.4088" fill="none" id="User-to-UC_Logout" style="stroke:#A80036;stroke-width:1;"/><polygon fill="#A80036" points="394.19,980.0169,386.5913,973.7511,389.3729,978.6768,384.4472,981.4584,394.19,980.0169" style="stroke:#A80036;stroke-width:1;"/></g><!--link User to UC_DeleteAccount--><g class="link" data-entity-1="User" data-entity-2="UC_DeleteAccount" data-source-line="87" data-uid="lnk45" id="link_User_UC_DeleteAccount"><path d="M110.3,909.7469 C130.99,924.8969 160.63,945.6869 188.09,961.5969 C240.55,991.9969 254.35,999.2169 311.09,1020.5969 C337.09,1030.3869 361.5896,1037.2999 384.4396,1043.0199" fill="none" id="User-to-UC_DeleteAccount" style="stroke:#A80036;stroke-width:1;"/><polygon fill="#A80036" points="390.26,1044.4769,382.5007,1038.4111,385.4097,1043.2627,380.5581,1046.1716,390.26,1044.4769" style="stroke:#A80036;stroke-width:1;"/></g><!--reverse link UC_Login to UC_EmailLogin--><g class="link" data-entity-1="UC_Login" data-entity-2="UC_EmailLogin" data-source-line="90" data-uid="lnk46" id="link_UC_Login_UC_EmailLogin"><path d="M473.6839,854.6384 C524.4739,848.1284 613.27,836.7369 677.96,828.4369" fill="none" id="UC_Login-backto-UC_EmailLogin" style="stroke:#A80036;stroke-width:1;"/><polygon fill="none" points="455.83,856.9269,474.4467,860.5898,472.9211,848.6871,455.83,856.9269" style="stroke:#A80036;stroke-width:1;"/></g><!--reverse link UC_Login to UC_GoogleLogin--><g class="link" data-entity-1="UC_Login" data-entity-2="UC_GoogleLogin" data-source-line="91" data-uid="lnk47" id="link_UC_Login_UC_GoogleLogin"><path d="M474.5445,864.3199 C513.4045,867.3799 566.11,871.5869 626.45,876.5969 C644.76,878.1169 664.85,879.8269 682.51,881.3469" fill="none" id="UC_Login-backto-UC_GoogleLogin" style="stroke:#A80036;stroke-width:1;"/><polygon fill="none" points="456.6,862.9069,474.0734,870.3014,475.0155,858.3384,456.6,862.9069" style="stroke:#A80036;stroke-width:1;"/></g><!--reverse link UC_Search to UC_TextSearch--><g class="link" data-entity-1="UC_Search" data-entity-2="UC_TextSearch" data-source-line="92" data-uid="lnk48" id="link_UC_Search_UC_TextSearch"><path d="M492.9814,534.7864 C509.8314,533.2064 511,533.3669 528.45,532.5969 C571.97,530.6669 582.94,530.7369 626.45,532.5969 C645.08,533.3969 665.51,534.9869 683.35,536.6069" fill="none" id="UC_Search-backto-UC_TextSearch" style="stroke:#A80036;stroke-width:1;"/><polygon fill="none" points="475.06,536.4669,493.5415,540.7602,492.4212,528.8126,475.06,536.4669" style="stroke:#A80036;stroke-width:1;"/></g><!--reverse link UC_Search to UC_PantrySearch--><g class="link" data-entity-1="UC_Search" data-entity-2="UC_PantrySearch" data-source-line="93" data-uid="lnk49" id="link_UC_Search_UC_PantrySearch"><path d="M494.5332,536.8567 C549.6632,533.3267 614.79,530.7869 626.45,539.5969 C638.99,549.0669 625.32,562.1769 636.11,573.5969 C646.92,585.0469 661.9,592.5169 676.78,597.4069" fill="none" id="UC_Search-backto-UC_PantrySearch" style="stroke:#A80036;stroke-width:1;"/><polygon fill="none" points="476.57,538.0069,494.9166,542.8444,494.1498,530.8689,476.57,538.0069" style="stroke:#A80036;stroke-width:1;"/></g><!--link UC_ViewRecommend to UC_ViewDetail--><g class="link" data-entity-1="UC_ViewRecommend" data-entity-2="UC_ViewDetail" data-source-line="95" data-uid="lnk50" id="link_UC_ViewRecommend_UC_ViewDetail"><path d="M479.16,624.6669 C535.05,635.5169 617.5599,651.5238 673.4699,662.3738" fill="none" id="UC_ViewRecommend-to-UC_ViewDetail" style="stroke:#A80036;stroke-width:1;stroke-dasharray:7,7;"/><polygon fill="#A80036" points="679.36,663.5169,671.2869,657.8756,674.4516,662.5643,669.7628,665.729,679.36,663.5169" style="stroke:#A80036;stroke-width:1;"/><text fill="#000000" font-family="sans-serif" font-size="13" lengthAdjust="spacing" textLength="63.0068" x="545.95" y="631.6638">&#171;include&#187;</text></g><!--link UC_ViewPopular to UC_ViewDetail--><g class="link" data-entity-1="UC_ViewPopular" data-entity-2="UC_ViewDetail" data-source-line="96" data-uid="lnk51" id="link_UC_ViewPopular_UC_ViewDetail"><path d="M492.84,683.0069 C543.91,680.9969 608.4747,678.4438 659.5847,676.4238" fill="none" id="UC_ViewPopular-to-UC_ViewDetail" style="stroke:#A80036;stroke-width:1;stroke-dasharray:7,7;"/><polygon fill="#A80036" points="665.58,676.1869,656.4291,672.5454,660.5839,676.3843,656.745,680.5392,665.58,676.1869" style="stroke:#A80036;stroke-width:1;"/><text fill="#000000" font-family="sans-serif" font-size="13" lengthAdjust="spacing" textLength="63.0068" x="545.95" y="674.6638">&#171;include&#187;</text></g><!--link UC_Search to UC_ViewDetail--><g class="link" data-entity-1="UC_Search" data-entity-2="UC_ViewDetail" data-source-line="97" data-uid="lnk52" id="link_UC_Search_UC_ViewDetail"><path d="M466.8,550.8869 C518.14,563.6569 603.81,587.6769 626.45,610.5969 C636,620.2569 626.6,629.8869 636.11,639.5969 C647.52,651.2669 657.5094,657.0752 672.8594,662.1152" fill="none" id="UC_Search-to-UC_ViewDetail" style="stroke:#A80036;stroke-width:1;stroke-dasharray:7,7;"/><polygon fill="#A80036" points="678.56,663.9869,671.2569,657.3789,673.8095,662.4271,668.7613,664.9797,678.56,663.9869" style="stroke:#A80036;stroke-width:1;"/><text fill="#000000" font-family="sans-serif" font-size="13" lengthAdjust="spacing" textLength="63.0068" x="545.95" y="564.6638">&#171;include&#187;</text></g><!--link UC_ViewDetail to UC_Bookmark--><g class="link" data-entity-1="UC_ViewDetail" data-entity-2="UC_Bookmark" data-source-line="98" data-uid="lnk53" id="link_UC_ViewDetail_UC_Bookmark"><path d="M797.6,669.6369 C840.23,667.0069 890.1414,663.9264 933.7414,661.2364" fill="none" id="UC_ViewDetail-to-UC_Bookmark" style="stroke:#A80036;stroke-width:1;stroke-dasharray:7,7;"/><polygon fill="#A80036" points="939.73,660.8669,930.5008,657.4287,934.7395,661.1748,930.9934,665.4135,939.73,660.8669" style="stroke:#A80036;stroke-width:1;"/><text fill="#000000" font-family="sans-serif" font-size="13" lengthAdjust="spacing" textLength="61.1851" x="839.21" y="659.6638">&#171;extend&#187;</text></g><!--link UC_ViewPantry to UC_AddPantry--><g class="link" data-entity-1="UC_ViewPantry" data-entity-2="UC_AddPantry" data-source-line="99" data-uid="lnk54" id="link_UC_ViewPantry_UC_AddPantry"><path d="M761.03,1246.1969 C781.98,1236.3069 811.58,1222.8469 838.21,1212.5969 C869.17,1200.6869 877.64,1199.7769 909.21,1189.5969 C932.23,1182.1769 952.5262,1175.658 972.2162,1169.348" fill="none" id="UC_ViewPantry-to-UC_AddPantry" style="stroke:#A80036;stroke-width:1;stroke-dasharray:7,7;"/><polygon fill="#A80036" points="977.93,1167.5169,968.1386,1166.4543,973.1685,1169.0428,970.5801,1174.0727,977.93,1167.5169" style="stroke:#A80036;stroke-width:1;"/><text fill="#000000" font-family="sans-serif" font-size="13" lengthAdjust="spacing" textLength="61.1851" x="839.21" y="1188.6638">&#171;extend&#187;</text></g><!--link UC_ViewPantry to UC_EditPantry--><g class="link" data-entity-1="UC_ViewPantry" data-entity-2="UC_EditPantry" data-source-line="100" data-uid="lnk55" id="link_UC_ViewPantry_UC_EditPantry"><path d="M782.54,1268.6969 C800.06,1271.6369 819.96,1274.6469 838.21,1276.5969 C882.04,1281.2869 926.4629,1283.3798 961.0829,1284.4598" fill="none" id="UC_ViewPantry-to-UC_EditPantry" style="stroke:#A80036;stroke-width:1;stroke-dasharray:7,7;"/><polygon fill="#A80036" points="967.08,1284.6469,958.2091,1280.3682,962.0824,1284.491,957.9597,1288.3643,967.08,1284.6469" style="stroke:#A80036;stroke-width:1;"/><text fill="#000000" font-family="sans-serif" font-size="13" lengthAdjust="spacing" textLength="61.1851" x="839.21" y="1272.6638">&#171;extend&#187;</text></g><!--link UC_ViewPantry to UC_DeletePantry--><g class="link" data-entity-1="UC_ViewPantry" data-entity-2="UC_DeletePantry" data-source-line="101" data-uid="lnk56" id="link_UC_ViewPantry_UC_DeletePantry"><path d="M787.13,1252.1769 C840.85,1244.7669 916.1964,1234.3874 964.0064,1227.7874" fill="none" id="UC_ViewPantry-to-UC_DeletePantry" style="stroke:#A80036;stroke-width:1;stroke-dasharray:7,7;"/><polygon fill="#A80036" points="969.95,1226.9669,960.4876,1224.2352,964.997,1227.6506,961.5815,1232.16,969.95,1226.9669" style="stroke:#A80036;stroke-width:1;"/><text fill="#000000" font-family="sans-serif" font-size="13" lengthAdjust="spacing" textLength="61.1851" x="839.21" y="1233.6638">&#171;extend&#187;</text></g><!--link UC_Login to Firebase--><g class="link" data-entity-1="UC_Login" data-entity-2="Firebase" data-source-line="104" data-uid="lnk57" id="link_UC_Login_Firebase"><path d="M454.91,855.2869 C470.27,850.8269 488.27,842.8169 498.45,828.5969 C539.77,770.8769 476.77,559.2469 528.45,510.5969 C627.12,417.7069 1045.4189,454.6844 1219.2289,474.5844" fill="none" id="UC_Login-to-Firebase" style="stroke:#A80036;stroke-width:1;"/><polygon fill="#A80036" points="1225.19,475.2669,1216.7034,470.2691,1220.2225,474.6981,1215.7934,478.2172,1225.19,475.2669" style="stroke:#A80036;stroke-width:1;"/><text fill="#000000" font-family="sans-serif" font-size="13" lengthAdjust="spacing" textLength="51.9724" x="844.21" y="447.6638">&#51064;&#51613; &#54869;&#51064;</text></g><!--link UC_Join to Firebase--><g class="link" data-entity-1="UC_Join" data-entity-2="Firebase" data-source-line="105" data-uid="lnk58" id="link_UC_Join_Firebase"><path d="M445.33,783.5969 C462.24,770.3469 486.59,748.1569 498.45,722.5969 C525.82,663.6269 480.18,475.1469 528.45,431.5969 C728.42,251.1769 1083.2907,383.6077 1229.8207,450.4177" fill="none" id="UC_Join-to-Firebase" style="stroke:#A80036;stroke-width:1;"/><polygon fill="#A80036" points="1235.28,452.9069,1228.7505,445.5336,1230.7306,450.8326,1225.4316,452.8127,1235.28,452.9069" style="stroke:#A80036;stroke-width:1;"/><text fill="#000000" font-family="sans-serif" font-size="13" lengthAdjust="spacing" textLength="51.9724" x="844.21" y="339.6638">&#50976;&#51200; &#49373;&#49457;</text></g><!--link UC_ViewPantry to Firebase--><g class="link" data-entity-1="UC_ViewPantry" data-entity-2="Firebase" data-source-line="106" data-uid="lnk59" id="link_UC_ViewPantry_Firebase"><path d="M754.55,1273.9469 C819.57,1316.0169 1018.7,1430.1769 1134.64,1334.5969 C1264.56,1227.4969 1293.4175,663.0327 1298.6475,522.0927" fill="none" id="UC_ViewPantry-to-Firebase" style="stroke:#A80036;stroke-width:1;"/><polygon fill="#A80036" points="1298.87,516.0969,1294.539,524.9424,1298.6846,521.0934,1302.5335,525.239,1298.87,516.0969" style="stroke:#A80036;stroke-width:1;"/><text fill="#000000" font-family="sans-serif" font-size="13" lengthAdjust="spacing" textLength="63.9324" x="978.43" y="1330.6638">&#45936;&#51060;&#53552; &#47196;&#46300;</text></g><!--link UC_ViewRecommend to Firebase--><g class="link" data-entity-1="UC_ViewRecommend" data-entity-2="Firebase" data-source-line="107" data-uid="lnk60" id="link_UC_ViewRecommend_Firebase"><path d="M464.32,601.2169 C477.09,594.7869 490.23,585.7769 498.45,573.5969 C551.98,494.3869 456.29,423.3069 528.45,360.5969 C640.36,263.3469 1061.24,297.9969 1195.64,360.5969 C1236.18,379.4769 1263.5883,417.5302 1280.8083,447.6002" fill="none" id="UC_ViewRecommend-to-Firebase" style="stroke:#A80036;stroke-width:1;"/><polygon fill="#A80036" points="1283.79,452.8069,1282.7886,443.0091,1281.3053,448.468,1275.8464,446.9846,1283.79,452.8069" style="stroke:#A80036;stroke-width:1;"/><text fill="#000000" font-family="sans-serif" font-size="13" lengthAdjust="spacing" textLength="51.9724" x="844.21" y="296.6638">&#53244;&#47532; &#50836;&#52397;</text></g><!--link UC_Bookmark to Firebase--><g class="link" data-entity-1="UC_Bookmark" data-entity-2="Firebase" data-source-line="108" data-uid="lnk61" id="link_UC_Bookmark_Firebase"><path d="M1067,645.9669 C1088.89,640.4969 1113.7,632.6069 1134.64,621.5969 C1187.42,593.8569 1234.5233,551.5154 1265.6233,520.4754" fill="none" id="UC_Bookmark-to-Firebase" style="stroke:#A80036;stroke-width:1;"/><polygon fill="#A80036" points="1269.87,516.2369,1260.6742,519.7635,1266.3311,519.769,1266.3256,525.4258,1269.87,516.2369" style="stroke:#A80036;stroke-width:1;"/><text fill="#000000" font-family="sans-serif" font-size="13" lengthAdjust="spacing" textLength="51.9724" x="1143.64" y="579.6638">&#49345;&#53468; &#51200;&#51109;</text></g><!--link UC_Search to Algolia--><g class="link" data-entity-1="UC_Search" data-entity-2="Algolia" data-source-line="110" data-uid="lnk62" id="link_UC_Search_Algolia"><path d="M475.66,536.8669 C484.3,533.9269 492.45,529.4169 498.45,522.5969 C565.35,446.4869 463.46,374.3269 528.45,296.5969 C529.01,295.9269 592.8517,275.5438 650.3517,257.2738" fill="none" id="UC_Search-to-Algolia" style="stroke:#A80036;stroke-width:1;"/><polygon fill="#A80036" points="656.07,255.4569,646.2813,254.3701,651.3048,256.971,648.7039,261.9945,656.07,255.4569" style="stroke:#A80036;stroke-width:1;"/><text fill="#000000" font-family="sans-serif" font-size="13" lengthAdjust="spacing" textLength="51.9724" x="551.95" y="262.6638">&#44160;&#49353; &#50836;&#52397;</text></g><!--link UC_SyncIndex to Algolia--><g class="link" data-entity-1="UC_SyncIndex" data-entity-2="Algolia" data-source-line="111" data-uid="lnk63" id="link_UC_SyncIndex_Algolia"><path d="M429.22,441.3469 C435.19,398.4769 457.21,287.1569 528.45,239.5969 C565.39,214.9369 609.1484,212.0339 650.1184,216.0339" fill="none" id="UC_SyncIndex-to-Algolia" style="stroke:#A80036;stroke-width:1;"/><polygon fill="#A80036" points="656.09,216.6169,647.5213,211.7613,651.1137,216.131,646.7439,219.7234,656.09,216.6169" style="stroke:#A80036;stroke-width:1;"/><text fill="#000000" font-family="sans-serif" font-size="13" lengthAdjust="spacing" textLength="63.9324" x="545.95" y="211.6638">&#45936;&#51060;&#53552; &#44081;&#49888;</text></g><!--link AndroidSystem to UC_CheckExpiration--><g class="link" data-entity-1="AndroidSystem" data-entity-2="UC_CheckExpiration" data-source-line="114" data-uid="lnk64" id="link_AndroidSystem_UC_CheckExpiration"><path d="M119.14,1390.9269 C191.1,1326.8969 347.1875,1188.0253 401.9875,1139.2653" fill="none" id="AndroidSystem-to-UC_CheckExpiration" style="stroke:#A80036;stroke-width:1;"/><polygon fill="#A80036" points="406.47,1135.2769,397.0874,1138.2712,402.7346,1138.6006,402.4052,1144.2478,406.47,1135.2769" style="stroke:#A80036;stroke-width:1;"/><text fill="#000000" font-family="sans-serif" font-size="13" lengthAdjust="spacing" textLength="102.9895" x="194.59" y="1230.6638">&#51452;&#44592;&#51201; &#49892;&#54665; (24h)</text></g><!--link UC_CheckExpiration to UC_ReceiveNoti--><g class="link" data-entity-1="UC_CheckExpiration" data-entity-2="UC_ReceiveNoti" data-source-line="115" data-uid="lnk65" id="link_UC_CheckExpiration_UC_ReceiveNoti"><path d="M484.07,1129.0669 C538.48,1139.0869 614.2093,1153.03 668.6093,1163.05" fill="none" id="UC_CheckExpiration-to-UC_ReceiveNoti" style="stroke:#A80036;stroke-width:1;"/><polygon fill="#A80036" points="674.51,1164.1369,666.3835,1158.5728,669.5927,1163.2312,664.9343,1166.4404,674.51,1164.1369" style="stroke:#A80036;stroke-width:1;"/><text fill="#000000" font-family="sans-serif" font-size="13" lengthAdjust="spacing" textLength="96.117" x="529.45" y="1134.6638">&#51312;&#44148; &#52649;&#51313; &#49884; &#48156;&#49569;</text></g><!--link UC_ReceiveNoti to User--><g class="link" data-entity-1="UC_ReceiveNoti" data-entity-2="User" data-source-line="116" data-uid="lnk66" id="link_UC_ReceiveNoti_User"><path d="M679.52,1186.4469 C597.09,1202.5869 432.95,1223.4069 311.09,1166.5969 C209.98,1119.4569 141.6315,1007.8741 108.1015,941.9941" fill="none" id="UC_ReceiveNoti-to-User" style="stroke:#A80036;stroke-width:1;"/><polygon fill="#A80036" points="105.38,936.6469,105.8974,946.4821,107.6479,941.1029,113.0271,942.8534,105.38,936.6469" style="stroke:#A80036;stroke-width:1;"/></g><!--link Admin to UC_SyncIndex--><g class="link" data-entity-1="Admin" data-entity-2="UC_SyncIndex" data-source-line="118" data-uid="lnk67" id="link_Admin_UC_SyncIndex"><path d="M127.17,136.7069 C203.99,219.6669 355.9034,383.7345 405.5834,437.3845" fill="none" id="Admin-to-UC_SyncIndex" style="stroke:#A80036;stroke-width:1;"/><polygon fill="#A80036" points="409.66,441.7869,406.48,432.4655,406.2628,438.1182,400.6101,437.901,409.66,441.7869" style="stroke:#A80036;stroke-width:1;"/><text fill="#000000" font-family="sans-serif" font-size="13" lengthAdjust="spacing" textLength="113.7033" x="189.09" y="205.6638">Firestore &#48320;&#44221; &#44048;&#51648;</text></g><!--SRC=[bLTlRzj467_lJt4AqfQyQ3isXD0qAcLTCeOOL0pO6oHax5jgrV55PsThWKdPaevsVqGH2Mkx94gqhL3KIMwRZI0L-3xs-JlmdF_bx2IipOiskVlzplVydhy-YsPcPX1x-CAhrrZd6B762zPhyKL9nxSiP154jTAIXLIDOiNIY26PovfHaQbSHXLPMPPB-8QrgcF4jsMZf6C182iMeS6sV0URf2nkLasio2P6tqi8FfVXh18bLKDT83gXw9rYeLXOA0HxXAgOXklv3ywTk_2-lvwdbDn9BjyL7g2GSeKOsB226rJB-db9iZGBlhETfhkxV_KprhVz_oXR94H5dsD5gs2KhrHow4kusWA_tnLDBi5nadGMVNZY3u3VdKLvRh-9igpLznes0cLPPojtkeDy3L66tTzdEtkik_craOMhqLm6oIQ_98qGpg06jW1YZZrgSu-kjG5R1BzzoyqeLWtVVsR0pAjbpU0siUsX-wQ6OWxA5bOiJ0rPHpTMJGkNpPmKAuaoqNbmTBvgBStntoOy7mV7HjiY9Q-NYAx9mBY1PQeieO9HqeoG46ucy8PAYQQ6ZmVQJKANhyi6X5feTeW80ATspFdPy6W8B8WtcQw2XsBpdSE_dQF6APqK1pyuAXrQ44qP278_Oiy6wTOPijqEyWK4YpL5vex9-Ld7KM5UeOotyvWzsqI1PmDyBXCc3Fz4APHn-stdpo6S6qJ5mZUV491u7CSw0tUloHDzZ54eove-XUQytdU6jN7ELKB0vYcauFAENMFTjOZmCPc4TFzgk7RDFLptjeQ8sVyuGpiY53L3NRmvrU1MWpsh2pQJgZNXzaSDNjEy-hhtuo02Ny4wjd1UKI040ivTqKLkVODrNpf7FPHTb0sBhaxmpWWJEIY4JdGHw-wxpnyZzuyzjzz141sWJtIPhpHy9-1EvR4tJP0o8kHLzMtuzIqmEdQkgbbl8zn_nNhjf3nJAUsUz-0rkCbhjH5hFNPt8Q3iPuBVe99YxJR-b5ZQ175xwv1lNlCOdO5qgx7w1if-1CrXBgWFawIE6LvzqyS7fNgAr6-QxB0jF6PSRQ2JSXaRwgGS6O8X_yjU99MgBjC9OHcJ0hiYKc3OX1nPUyBBpiDX2ly5Nh6cSToZ0UYF0hT17gIeWS-caaTMrU-nnX31QOBRk75Ni0MLODnhZjq6QRpj9iGvfYQ13g5zDwro2U3hgsWHrgQuQdVJEVmzoFamnkUyra28nCk4B9TbklmMxjIyAigt2TKiR4vGlza0_RnM8ymMb7KVRRWm0NKRkKJcK79BWy4ca8J_5OFPFe1Av7QEsSx0_GNIeVipUxeMAp8bPxfGyQ0aRRU4QhgmX9Nbmaf5exwgINgO9m1tdnn0p23tfsr-s7OpZh5LGxbcg7W5Xg3JjiGBip3xwFvZpIMj0YCBb3IecuWzjPr3-vJTK0hRN3IoG8deixKjNnC-iS2N-L6J4bVy_Y0kXFLVN1AAPNfvbDLZX31ZnVKmHzBGKS28Es8Sf6pWJKTSIhQMI8mWtK9PizSCHQ-gU8xFMeOwTnKRcARoAH88NVe1-CaEFROdTkBOj7XNA2VZcuc28QMLHBEpyydAW2wYIvUquFxpyr9Iu9F0m-UVyE1mBqH7rS37ObyyuGw-9H4qxf4dm8xwumd0OczCmYDVnyCaf0_aQTATF4hYgVnYD0m6fK0ASs0CrEwn7WpfzGvh7AHkbOAwJsoOylZh1jGsA4ZZ7asV_Uyn7rvWRcM7hoHHupImVi-hWqqzcEXUIe8dEIwSum4MLQhulBWmfO2Zcphs0NlKY-HBLzGpqOZ1PKoC_b76fIedl-lpOwYEh7SFdF72-nK6XlFlBUMa2TZm265WuVI-xHmCe27jiVu1zoTSgiqUzAKKqYVpTp39Vv-AAqjiyKKKlo11gwt1omKOkyb-g_q7]--></g></svg>